<mxfile host="app.diagrams.net" modified="2024-03-14T23:55:55.045Z" agent="Mozilla/5.0 (X11; Ubuntu; Linux x86_64; rv:123.0) Gecko/20100101 Firefox/123.0" etag="D8XN7vKUYhWDTb3N9gaK" version="24.0.6" type="device">
  <diagram name="Page-1" id="GZBFxvJXoxZnEtgETqop">
    <mxGraphModel dx="494" dy="283" grid="1" gridSize="10" guides="1" tooltips="1" connect="1" arrows="1" fold="1" page="1" pageScale="1" pageWidth="827" pageHeight="1169" math="0" shadow="0">
      <root>
        <mxCell id="0" />
        <mxCell id="1" parent="0" />
        <mxCell id="wsGLkKjSFnASxqrC0h3r-1" value="&lt;div&gt;E&lt;/div&gt;" style="ellipse;whiteSpace=wrap;html=1;fillColor=#f8cecc;strokeColor=#b85450;" vertex="1" parent="1">
          <mxGeometry x="320" y="130" width="40" height="40" as="geometry" />
        </mxCell>
        <mxCell id="wsGLkKjSFnASxqrC0h3r-2" value="&lt;div&gt;I&lt;br&gt;&lt;/div&gt;" style="ellipse;whiteSpace=wrap;html=1;fillColor=#dae8fc;strokeColor=#6c8ebf;" vertex="1" parent="1">
          <mxGeometry x="320" y="200" width="40" height="40" as="geometry" />
        </mxCell>
        <mxCell id="wsGLkKjSFnASxqrC0h3r-10" value="" style="curved=1;endArrow=oval;html=1;rounded=0;strokeColor=default;endFill=1;" edge="1" parent="1">
          <mxGeometry width="50" height="50" relative="1" as="geometry">
            <mxPoint x="321" y="222" as="sourcePoint" />
            <mxPoint x="320" y="150" as="targetPoint" />
            <Array as="points">
              <mxPoint x="300" y="190" />
            </Array>
          </mxGeometry>
        </mxCell>
        <mxCell id="wsGLkKjSFnASxqrC0h3r-11" value="" style="curved=1;endArrow=classic;html=1;rounded=0;strokeColor=default;endFill=1;entryX=1;entryY=0.5;entryDx=0;entryDy=0;" edge="1" parent="1" target="wsGLkKjSFnASxqrC0h3r-2">
          <mxGeometry width="50" height="50" relative="1" as="geometry">
            <mxPoint x="360" y="150" as="sourcePoint" />
            <mxPoint x="361" y="222" as="targetPoint" />
            <Array as="points">
              <mxPoint x="380" y="180" />
            </Array>
          </mxGeometry>
        </mxCell>
        <mxCell id="wsGLkKjSFnASxqrC0h3r-19" value="" style="curved=1;endArrow=classic;html=1;rounded=0;strokeColor=none;endFill=1;entryX=1;entryY=0.5;entryDx=0;entryDy=0;" edge="1" parent="1">
          <mxGeometry width="50" height="50" relative="1" as="geometry">
            <mxPoint x="330" y="50" as="sourcePoint" />
            <mxPoint x="330" y="120" as="targetPoint" />
            <Array as="points">
              <mxPoint x="350" y="80" />
            </Array>
          </mxGeometry>
        </mxCell>
        <mxCell id="wsGLkKjSFnASxqrC0h3r-21" value="" style="curved=1;endArrow=classic;html=1;rounded=0;anchorPointDirection=1;shadow=0;exitX=0.186;exitY=0.101;exitDx=0;exitDy=0;exitPerimeter=0;entryX=0.824;entryY=0.099;entryDx=0;entryDy=0;entryPerimeter=0;" edge="1" parent="1" source="wsGLkKjSFnASxqrC0h3r-1" target="wsGLkKjSFnASxqrC0h3r-1">
          <mxGeometry width="50" height="50" relative="1" as="geometry">
            <mxPoint x="320" y="140" as="sourcePoint" />
            <mxPoint x="360" y="150" as="targetPoint" />
            <Array as="points">
              <mxPoint x="320" y="120" />
              <mxPoint x="340" y="110" />
              <mxPoint x="360" y="120" />
            </Array>
          </mxGeometry>
        </mxCell>
        <mxCell id="wsGLkKjSFnASxqrC0h3r-32" value="&lt;div&gt;E&lt;/div&gt;" style="ellipse;whiteSpace=wrap;html=1;fillColor=#f8cecc;strokeColor=#b85450;" vertex="1" parent="1">
          <mxGeometry x="460" y="130" width="40" height="40" as="geometry" />
        </mxCell>
        <mxCell id="wsGLkKjSFnASxqrC0h3r-33" value="&lt;div&gt;I&lt;br&gt;&lt;/div&gt;" style="ellipse;whiteSpace=wrap;html=1;fillColor=#dae8fc;strokeColor=#6c8ebf;" vertex="1" parent="1">
          <mxGeometry x="460" y="200" width="40" height="40" as="geometry" />
        </mxCell>
        <mxCell id="wsGLkKjSFnASxqrC0h3r-34" value="" style="curved=1;endArrow=oval;html=1;rounded=0;strokeColor=default;endFill=1;" edge="1" parent="1">
          <mxGeometry width="50" height="50" relative="1" as="geometry">
            <mxPoint x="461" y="222" as="sourcePoint" />
            <mxPoint x="460" y="150" as="targetPoint" />
            <Array as="points">
              <mxPoint x="440" y="190" />
            </Array>
          </mxGeometry>
        </mxCell>
        <mxCell id="wsGLkKjSFnASxqrC0h3r-35" value="" style="curved=1;endArrow=classic;html=1;rounded=0;strokeColor=default;endFill=1;entryX=1;entryY=0.5;entryDx=0;entryDy=0;" edge="1" parent="1" target="wsGLkKjSFnASxqrC0h3r-33">
          <mxGeometry width="50" height="50" relative="1" as="geometry">
            <mxPoint x="500" y="150" as="sourcePoint" />
            <mxPoint x="501" y="222" as="targetPoint" />
            <Array as="points">
              <mxPoint x="520" y="180" />
            </Array>
          </mxGeometry>
        </mxCell>
        <mxCell id="wsGLkKjSFnASxqrC0h3r-36" value="" style="curved=1;endArrow=classic;html=1;rounded=0;anchorPointDirection=1;shadow=0;exitX=0.186;exitY=0.101;exitDx=0;exitDy=0;exitPerimeter=0;entryX=0.824;entryY=0.099;entryDx=0;entryDy=0;entryPerimeter=0;" edge="1" parent="1" source="wsGLkKjSFnASxqrC0h3r-32" target="wsGLkKjSFnASxqrC0h3r-32">
          <mxGeometry width="50" height="50" relative="1" as="geometry">
            <mxPoint x="460" y="140" as="sourcePoint" />
            <mxPoint x="500" y="150" as="targetPoint" />
            <Array as="points">
              <mxPoint x="460" y="120" />
              <mxPoint x="480" y="110" />
              <mxPoint x="500" y="120" />
            </Array>
          </mxGeometry>
        </mxCell>
        <mxCell id="wsGLkKjSFnASxqrC0h3r-37" value="" style="curved=1;endArrow=classic;html=1;rounded=0;entryX=0.979;entryY=0.367;entryDx=0;entryDy=0;entryPerimeter=0;exitX=0.016;exitY=0.372;exitDx=0;exitDy=0;exitPerimeter=0;" edge="1" parent="1" source="wsGLkKjSFnASxqrC0h3r-32" target="wsGLkKjSFnASxqrC0h3r-1">
          <mxGeometry width="50" height="50" relative="1" as="geometry">
            <mxPoint x="466" y="140" as="sourcePoint" />
            <mxPoint x="360" y="141" as="targetPoint" />
            <Array as="points">
              <mxPoint x="412" y="160" />
            </Array>
          </mxGeometry>
        </mxCell>
        <mxCell id="wsGLkKjSFnASxqrC0h3r-31" value="" style="curved=1;endArrow=classic;html=1;rounded=0;entryX=0.059;entryY=0.282;entryDx=0;entryDy=0;entryPerimeter=0;exitX=0.946;exitY=0.263;exitDx=0;exitDy=0;exitPerimeter=0;" edge="1" parent="1" source="wsGLkKjSFnASxqrC0h3r-1" target="wsGLkKjSFnASxqrC0h3r-32">
          <mxGeometry width="50" height="50" relative="1" as="geometry">
            <mxPoint x="360" y="140" as="sourcePoint" />
            <mxPoint x="465.20000000000005" y="140.04000000000002" as="targetPoint" />
            <Array as="points">
              <mxPoint x="410" y="120" />
            </Array>
          </mxGeometry>
        </mxCell>
        <mxCell id="wsGLkKjSFnASxqrC0h3r-38" value="" style="endArrow=classic;html=1;rounded=0;dashed=1;" edge="1" parent="1">
          <mxGeometry width="50" height="50" relative="1" as="geometry">
            <mxPoint x="270" y="110" as="sourcePoint" />
            <mxPoint x="321" y="140" as="targetPoint" />
          </mxGeometry>
        </mxCell>
        <mxCell id="wsGLkKjSFnASxqrC0h3r-43" value="&lt;span dir=&quot;ltr&quot; role=&quot;presentation&quot; style=&quot;left: 137.702px; top: 294.335px; font-size: 10.2556px; font-family: monospace;&quot;&gt;VTS + θ&lt;/span&gt;&lt;span dir=&quot;ltr&quot; role=&quot;presentation&quot; style=&quot;left: 142.517px; top: 298.267px; font-size: 7.17891px; font-family: monospace;&quot;&gt;E&lt;/span&gt;" style="edgeLabel;html=1;align=center;verticalAlign=middle;resizable=0;points=[];" vertex="1" connectable="0" parent="wsGLkKjSFnASxqrC0h3r-38">
          <mxGeometry x="-0.155" y="-1" relative="1" as="geometry">
            <mxPoint as="offset" />
          </mxGeometry>
        </mxCell>
        <mxCell id="wsGLkKjSFnASxqrC0h3r-39" value="" style="endArrow=classic;html=1;rounded=0;dashed=1;" edge="1" parent="1">
          <mxGeometry width="50" height="50" relative="1" as="geometry">
            <mxPoint x="300" y="260" as="sourcePoint" />
            <mxPoint x="330" y="240" as="targetPoint" />
          </mxGeometry>
        </mxCell>
        <mxCell id="wsGLkKjSFnASxqrC0h3r-45" value="&lt;span dir=&quot;ltr&quot; role=&quot;presentation&quot; style=&quot;left: 137.702px; top: 294.335px; font-size: 10.2556px; font-family: monospace;&quot;&gt;θ&lt;/span&gt;&lt;span dir=&quot;ltr&quot; role=&quot;presentation&quot; style=&quot;left: 142.517px; top: 298.267px; font-size: 7.17891px; font-family: monospace;&quot;&gt;I&lt;/span&gt;" style="edgeLabel;html=1;align=center;verticalAlign=middle;resizable=0;points=[];" vertex="1" connectable="0" parent="wsGLkKjSFnASxqrC0h3r-39">
          <mxGeometry x="-0.1905" y="-1" relative="1" as="geometry">
            <mxPoint as="offset" />
          </mxGeometry>
        </mxCell>
        <mxCell id="wsGLkKjSFnASxqrC0h3r-41" value="" style="endArrow=classic;html=1;rounded=0;dashed=1;" edge="1" parent="1">
          <mxGeometry width="50" height="50" relative="1" as="geometry">
            <mxPoint x="520" y="260" as="sourcePoint" />
            <mxPoint x="490" y="240" as="targetPoint" />
          </mxGeometry>
        </mxCell>
        <mxCell id="wsGLkKjSFnASxqrC0h3r-47" value="&lt;span dir=&quot;ltr&quot; role=&quot;presentation&quot; style=&quot;left: 137.702px; top: 294.335px; font-size: 10.2556px; font-family: monospace;&quot;&gt;θ&lt;/span&gt;&lt;span dir=&quot;ltr&quot; role=&quot;presentation&quot; style=&quot;left: 142.517px; top: 298.267px; font-size: 7.17891px; font-family: monospace;&quot;&gt;I&lt;/span&gt;" style="edgeLabel;html=1;align=center;verticalAlign=middle;resizable=0;points=[];" vertex="1" connectable="0" parent="wsGLkKjSFnASxqrC0h3r-41">
          <mxGeometry x="-0.1236" y="-1" relative="1" as="geometry">
            <mxPoint as="offset" />
          </mxGeometry>
        </mxCell>
        <mxCell id="wsGLkKjSFnASxqrC0h3r-42" value="" style="endArrow=classic;html=1;rounded=0;dashed=1;" edge="1" parent="1">
          <mxGeometry width="50" height="50" relative="1" as="geometry">
            <mxPoint x="530" y="120" as="sourcePoint" />
            <mxPoint x="500" y="140" as="targetPoint" />
          </mxGeometry>
        </mxCell>
        <mxCell id="wsGLkKjSFnASxqrC0h3r-46" value="&lt;span dir=&quot;ltr&quot; role=&quot;presentation&quot; style=&quot;left: 137.702px; top: 294.335px; font-size: 10.2556px; font-family: monospace;&quot;&gt;θ&lt;/span&gt;&lt;span dir=&quot;ltr&quot; role=&quot;presentation&quot; style=&quot;left: 142.517px; top: 298.267px; font-size: 7.17891px; font-family: monospace;&quot;&gt;E&lt;/span&gt;" style="edgeLabel;html=1;align=center;verticalAlign=middle;resizable=0;points=[];" vertex="1" connectable="0" parent="wsGLkKjSFnASxqrC0h3r-42">
          <mxGeometry x="-0.3719" relative="1" as="geometry">
            <mxPoint as="offset" />
          </mxGeometry>
        </mxCell>
      </root>
    </mxGraphModel>
  </diagram>
</mxfile>
